<svg preserveAspectRatio="none" overflow="visible" style="display: block;" width="49.1151" height="15.5801" viewBox="0 0 49.1151 15.5801" fill="none" xmlns="http://www.w3.org/2000/svg">
<g id="Group">
<path id="Vector" d="M29.2697 0.000934179H25.2126L23.9442 1.29152V0.000934179H21.3018V15.5801H23.4516L24.2758 14.7559V11.2953H29.2688L31.0986 9.46559V1.83064L29.2688 0.000934179H29.2697ZM28.1042 8.59H24.2768V3.45285L25.0467 2.76732H28.1042V8.59097V8.59Z" fill="#1F20B7"/>
<g id="Group_2">
<path id="Vector_2" d="M7.75945 11.2953L9.59022 9.46465V6.73996L2.99537 3.16199V2.20496L7.29594 2.19526V3.60997L9.79774 3.61966V1.83068L7.5723 0H1.87247L0.0630299 1.83068V4.55537L6.63558 8.13334V9.09037H2.78786V7.80075H0V9.46465L1.83077 11.2953H7.75945Z" fill="#1F20B7"/>
<path id="Vector_3" d="M16.2682 11.2954L17.5376 10.0057V11.2954H20.179V2.18201e-05H17.204V7.84247L16.435 8.52897H13.398V2.18201e-05H10.423V9.46467L12.2537 11.2954H16.2682Z" fill="#1F20B7"/>
<path id="Vector_4" d="M33.8273 2.18201e-05L32.0179 1.8307V9.46467L33.8273 11.2954H39.7346L41.5441 9.46467V7.36346H38.6738V8.88192H34.9298V6.19893H41.545V1.8307L39.7356 2.18201e-05H33.8273ZM38.6738 4.7018H34.9298V2.41345H38.6738V4.7018Z" fill="#1F20B7"/>
<path id="Vector_5" d="M46.5764 2.18201e-05L45.0579 1.51848V2.18201e-05H42.4174V11.2944H44.575L45.3915 10.4789V3.66138L46.2652 2.84979H49.1151V2.18201e-05H46.5764Z" fill="#1F20B7"/>
</g>
</g>
</svg>
